<svg id="Layer_1" enable-background="new 0 0 462.44 462.44" height="512" viewBox="0 0 462.44 462.44" width="512" xmlns="http://www.w3.org/2000/svg"><path d="m421.663 98.631 19.606 33.959c3.987 6.906 2.281 15.693-4.001 20.605l-22.503 17.595c-4.927 3.852-7.209 10.235-5.71 16.307 6.952 28.146 7.313 58.503.063 87.999-1.515 6.164.647 12.647 5.647 16.557l22.502 17.594c6.282 4.912 7.988 13.699 4.001 20.605l-19.606 33.959c-3.987 6.906-12.45 9.821-19.845 6.837l-26.499-10.695c-5.825-2.351-12.525-1.133-17.048 3.225-21.128 20.351-47.123 35.674-76.08 44.046-6.108 1.766-10.654 6.883-11.54 13.178l-3.981 28.27c-1.112 7.897-7.869 13.769-15.844 13.769h-39.211c-7.975 0-14.732-5.872-15.844-13.769l-3.981-28.27c-.887-6.296-5.433-11.412-11.54-13.178-28.957-8.373-54.951-23.695-76.08-44.046-4.524-4.357-11.224-5.576-17.049-3.225l-26.499 10.695c-7.394 2.984-15.858.069-19.845-6.837l-19.606-33.959c-3.987-6.906-2.281-15.693 4.001-20.605l22.503-17.595c4.927-3.852 7.209-10.235 5.71-16.307-6.952-28.146-7.313-58.503-.063-87.999 1.515-6.164-.647-12.647-5.647-16.557l-22.502-17.594c-6.282-4.912-7.988-13.699-4.001-20.605l19.609-33.959c3.987-6.906 12.45-9.821 19.845-6.837l26.499 10.695c5.825 2.351 12.525 1.133 17.049-3.225 21.128-20.351 47.123-35.674 76.08-44.046 6.108-1.766 10.654-6.883 11.54-13.178l3.981-28.27c1.111-7.898 7.868-13.77 15.842-13.77h39.211c7.975 0 14.732 5.872 15.844 13.769l3.981 28.27c.887 6.296 5.433 11.412 11.54 13.178 28.957 8.373 54.951 23.695 76.08 44.046 4.524 4.357 11.224 5.576 17.048 3.225l26.499-10.695c7.394-2.984 15.857-.068 19.844 6.838z" fill="#fe4f60"/><path d="m282.964 101.082c-109.742 32.509-172.117 140.006-155.7 250.394 1.882 12.653-13.221 21.213-23.093 11.705-4.52-4.36-11.22-5.58-17.05-3.23l-26.5 10.7c-7.39 2.98-15.85.06-19.84-6.84l-19.61-33.96c-3.99-6.9-2.28-15.69 4-20.6l22.51-17.6c4.92-3.85 7.21-10.23 5.71-16.31-6.96-28.14-7.32-58.5-.07-87.99 1.52-6.17-.64-12.65-5.64-16.56l-22.51-17.6c-6.28-4.91-7.99-13.7-4-20.6l19.61-33.96c3.99-6.9 12.45-9.82 19.84-6.84l26.5 10.7c5.83 2.35 12.53 1.13 17.05-3.23 21.13-20.35 47.12-35.67 76.08-44.04 6.11-1.77 10.65-6.89 11.54-13.18l3.98-28.27c1.11-7.9 7.87-13.77 15.84-13.77h39.22c7.97 0 14.73 5.87 15.84 13.77l3.98 28.27c.89 6.29 5.43 11.41 11.54 13.18 24.034 6.949 23.155 39.23.773 45.861z" fill="#ff6d7a"/><path d="m231.222 111.22c65.83 0 120 54.17 120 120s-54.17 120-120 120-120-54.17-120-120 54.17-120 120-120z" fill="#d6f4fc"/><path d="m251.592 112.98c-71.489 33.465-116.402 100.683-125.29 176.17-9.6-17.21-15.08-36.98-15.08-57.93 0-73.603 67.226-131.034 140.37-118.24z" fill="#e8f8fc"/><g fill="#fff"><path d="m207.165 272.116c-3.808-2.24-5.08-7.144-2.839-10.952l40-68c2.24-3.808 7.145-5.078 10.952-2.839 3.808 2.24 5.08 7.144 2.839 10.952l-40 68c-2.239 3.807-7.142 5.079-10.952 2.839z"/><path d="m175.565 261.887-25.01-25.01c-3.125-3.125-3.125-8.189 0-11.314l25.01-25.01c3.124-3.123 8.189-3.123 11.313 0 3.125 3.125 3.125 8.189 0 11.314l-19.353 19.353 19.353 19.353c3.125 3.125 3.125 8.189 0 11.314-3.125 3.124-8.189 3.123-11.313 0z"/><path d="m274.565 261.887c-3.125-3.125-3.125-8.189 0-11.314l19.353-19.353-19.353-19.353c-3.125-3.125-3.125-8.189 0-11.314 3.124-3.123 8.189-3.123 11.313 0l25.01 25.01c3.125 3.125 3.125 8.189 0 11.314l-25.01 25.01c-3.125 3.124-8.189 3.123-11.313 0z"/></g></svg>